<svg width="24" height="24" viewBox="0 0 24 24" fill="none" xmlns="http://www.w3.org/2000/svg">
<path d="M6.80717 7.78688C6.75032 7.64985 6.73539 7.49904 6.76425 7.35353C6.79312 7.20801 6.8645 7.07432 6.96935 6.96938L11.4694 2.46938C11.539 2.39965 11.6217 2.34433 11.7128 2.30658C11.8038 2.26884 11.9014 2.24941 12 2.24941C12.0985 2.24941 12.1961 2.26884 12.2872 2.30658C12.3782 2.34433 12.461 2.39965 12.5306 2.46938L17.0306 6.96938C17.1356 7.07427 17.2071 7.20796 17.2361 7.35352C17.2651 7.49909 17.2503 7.64998 17.1934 7.7871C17.1366 7.92421 17.0404 8.04139 16.917 8.12379C16.7935 8.2062 16.6484 8.25012 16.5 8.25H7.49998C7.35165 8.24997 7.20665 8.20596 7.08333 8.12352C6.96001 8.04108 6.86391 7.92393 6.80717 7.78688ZM16.5 15.75H7.49998C7.35156 15.7499 7.20644 15.7938 7.08299 15.8762C6.95955 15.9586 6.86333 16.0758 6.80651 16.2129C6.7497 16.35 6.73485 16.5009 6.76383 16.6465C6.79282 16.792 6.86435 16.9257 6.96935 17.0306L11.4694 21.5306C11.539 21.6004 11.6217 21.6557 11.7128 21.6934C11.8038 21.7312 11.9014 21.7506 12 21.7506C12.0985 21.7506 12.1961 21.7312 12.2872 21.6934C12.3782 21.6557 12.461 21.6004 12.5306 21.5306L17.0306 17.0306C17.1356 16.9257 17.2071 16.792 17.2361 16.6465C17.2651 16.5009 17.2503 16.35 17.1934 16.2129C17.1366 16.0758 17.0404 15.9586 16.917 15.8762C16.7935 15.7938 16.6484 15.7499 16.5 15.75Z" fill="#8b96ae"/>
</svg>
