<svg width="20" height="20" viewBox="0 0 24 24" fill="none" xmlns="http://www.w3.org/2000/svg">
<path fill-rule="evenodd" clip-rule="evenodd" d="M4.42999 8.512C4.49412 8.43717 4.57236 8.37572 4.66025 8.33115C4.74814 8.28658 4.84395 8.25977 4.94221 8.25225C5.04046 8.24473 5.13924 8.25664 5.23289 8.28731C5.32654 8.31798 5.41322 8.36681 5.48799 8.431L12 14.012L18.512 8.431C18.6638 8.30912 18.8571 8.25107 19.0509 8.2691C19.2448 8.28713 19.424 8.37984 19.5508 8.52762C19.6775 8.6754 19.7418 8.86668 19.7301 9.06101C19.7184 9.25535 19.6316 9.43751 19.488 9.569L12.488 15.569C12.3521 15.6855 12.179 15.7495 12 15.7495C11.821 15.7495 11.6479 15.6855 11.512 15.569L4.51199 9.569C4.36118 9.43951 4.26793 9.25545 4.25274 9.05726C4.23756 8.85907 4.30167 8.66295 4.43099 8.512H4.42999Z" fill="#8b96ae"/>
</svg>
